# xmcd
#
# Track frame offsets:
#	150
#	25592
#	41322
#	65631
#	84479
#	101740
#	114750
#	129259
#	142999
#	158511
#	177704
#	192621
#	209470
#	226226
#	241517
#	256496
#	272346
#	285461
#
# Disc length: 4080 seconds
#
# Revision: 1
# Processed by: cddbd v1.5.2PL0 Copyright (c) Steve Scherf et al.
# Submitted via: audiograbber 1.83.01
#
DISCID=eb0fee12
DTITLE=Stylistics - The Ultimate Collection  [CD2)
DYEAR=2005
DGENRE=Oldies
TTITLE0=You Make Me Feel Brand New
TTITLE1=Let's Put It All Together
TTITLE2=Heavy Fallin' Out
TTITLE3=Star On A T.V. Show
TTITLE4=Thank You Baby
TTITLE5=Sing Baby Sing
TTITLE6=Can't Give You Anything (But My Love)
TTITLE7=Na Na Is The Saddist Word
TTITLE8=Funky Weekend
TTITLE9=You Are Beautiful
TTITLE10=Can't Help Falling In Love
TTITLE11=Sixteen Bars
TTITLE12=Because I Love You Girl
TTITLE13=7000 Dollars and You
TTITLE14=Shame and Scandal In The Family
TTITLE15=I'm Coming Home
TTITLE16=First Ompressions
TTITLE17=Love At First Sight
EXTD=
EXTT0=
EXTT1=
EXTT2=
EXTT3=
EXTT4=
EXTT5=
EXTT6=
EXTT7=
EXTT8=
EXTT9=
EXTT10=
EXTT11=
EXTT12=
EXTT13=
EXTT14=
EXTT15=
EXTT16=
EXTT17=
PLAYORDER=
